<svg width="93" height="172" viewBox="0 0 93 172" fill="none" xmlns="http://www.w3.org/2000/svg">
<circle cx="68" cy="159" r="7" fill="#75F5DB"/>
<circle cx="68" cy="159" r="7" fill="#EEEEEE"/>
<path d="M68 152C69.8565 152 71.637 152.737 72.9497 154.05C74.2625 155.363 75 157.143 75 159C75 160.857 74.2625 162.637 72.9498 163.95C71.637 165.262 69.8565 166 68 166L68 159V152Z" fill="#75F5DB"/>
<circle cx="68" cy="159" r="7" fill="#EEEEEE"/>
<path d="M68 152C69.3845 152 70.7378 152.411 71.889 153.18C73.0401 153.949 73.9373 155.042 74.4672 156.321C74.997 157.6 75.1356 159.008 74.8655 160.366C74.5954 161.724 73.9287 162.971 72.9497 163.95L68 159V152Z" fill="#75F5DB"/>
</svg>
