<svg width="20" height="20" viewBox="0 0 20 20" fill="none" xmlns="http://www.w3.org/2000/svg">
<path d="M16.5577 14.5096C17.0181 14.7521 17.3974 14.6949 17.6954 14.3381C17.9936 13.9813 18.0321 13.5887 17.8108 13.1602L16.2179 10.1731L14.8302 13.609L16.5577 14.5096ZM12.1346 13.75H13.8719L15.9038 8.7275C16.031 8.41347 16.0526 8.15951 15.9688 7.96562C15.8849 7.7716 15.7265 7.62708 15.4935 7.53208L13.8269 6.86542C13.5737 6.75958 13.3293 6.74674 13.0938 6.82688C12.8582 6.90701 12.7265 7.08437 12.6988 7.35896L12.1346 13.75ZM6.12812 13.75H7.86542L7.30125 7.29479C7.27347 7.07799 7.14715 6.92576 6.92229 6.83812C6.69743 6.75049 6.44771 6.75958 6.17313 6.86542L4.50646 7.53208C4.25646 7.63778 4.10979 7.80361 4.06646 8.02958C4.02326 8.25556 4.05451 8.50958 4.16021 8.79167L6.12812 13.75ZM3.44229 14.5096L5.16979 13.609L3.81417 10.1731L2.18917 13.2244C1.94667 13.6634 1.98778 14.0426 2.3125 14.3621C2.63722 14.6815 3.01382 14.7307 3.44229 14.5096ZM8.69875 13.75H11.3013L11.9583 6.32375C11.9861 6.07056 11.9228 5.85604 11.7683 5.68021C11.614 5.50451 11.3996 5.41667 11.125 5.41667H8.875C8.66778 5.41667 8.4709 5.49653 8.28438 5.65625C8.09799 5.81597 8.01708 6.01708 8.04167 6.25958L8.69875 13.75ZM2.94104 15.4487C2.45785 15.4487 2.05521 15.2834 1.73312 14.9527C1.41104 14.622 1.25 14.2222 1.25 13.7531C1.25 13.5976 1.26896 13.4451 1.30687 13.2958C1.34479 13.1467 1.39847 13.001 1.46792 12.859L3.3975 9.16667C3.21375 8.68583 3.19132 8.20931 3.33021 7.73708C3.4691 7.26486 3.75965 6.93903 4.20188 6.75958L5.86854 6.09292C6.10576 5.99139 6.34833 5.94014 6.59625 5.93917C6.84403 5.93806 7.06514 6.01174 7.25958 6.16021C7.30444 5.72535 7.47917 5.35382 7.78375 5.04563C8.08819 4.73743 8.46021 4.58333 8.89979 4.58333H11.125C11.5588 4.58333 11.9306 4.72944 12.2404 5.02167C12.5503 5.31389 12.7383 5.67208 12.8046 6.09625C12.9669 5.94014 13.172 5.87785 13.4198 5.90938C13.6677 5.9409 13.9049 6.00208 14.1315 6.09292L15.7981 6.75958C16.2469 6.93903 16.5503 7.26222 16.7083 7.72917C16.8664 8.19611 16.8418 8.66139 16.6346 9.125L18.5642 12.8173C18.6261 12.938 18.6779 13.0592 18.7196 13.1808C18.7612 13.3025 18.7821 13.4292 18.7821 13.5608C18.7821 14.079 18.6023 14.5232 18.2427 14.8933C17.8833 15.2636 17.4468 15.4487 16.9333 15.4487C16.8079 15.4487 16.6884 15.434 16.5748 15.4046C16.4612 15.3753 16.3476 15.3313 16.234 15.2725L14.8781 14.5833H5.11208L3.84938 15.2404C3.7116 15.3162 3.56604 15.3699 3.41271 15.4015C3.25937 15.433 3.10215 15.4487 2.94104 15.4487Z" fill="#595959"/>
</svg>
