<svg width="20" height="20" viewBox="0 0 20 20" fill="none" xmlns="http://www.w3.org/2000/svg">
<path d="M1.66667 10C1.66667 8.85361 1.88486 7.77292 2.32125 6.75792C2.75778 5.74306 3.35264 4.85903 4.10583 4.10583C4.85903 3.35264 5.74306 2.75778 6.75792 2.32125C7.77292 1.88486 8.85361 1.66667 10 1.66667C10.7628 1.66667 11.4882 1.76125 12.1763 1.95042C12.8643 2.13944 13.5149 2.40917 14.1281 2.75958C14.5085 2.65917 14.9122 2.58549 15.339 2.53854C15.7658 2.49146 16.2351 2.46792 16.7469 2.46792C16.7469 2.92097 16.7295 3.34542 16.6948 3.74125C16.6601 4.13708 16.608 4.50431 16.5385 4.84292C17.1005 5.55667 17.5401 6.35021 17.8573 7.22354C18.1747 8.09701 18.3333 9.0225 18.3333 10C18.3333 11.1464 18.1151 12.2271 17.6787 13.2421C17.2422 14.2569 16.6474 15.141 15.8942 15.8942C15.141 16.6474 14.2569 17.2422 13.2421 17.6787C12.2271 18.1151 11.1464 18.3333 10 18.3333C8.85361 18.3333 7.77292 18.1151 6.75792 17.6787C5.74306 17.2422 4.85903 16.6474 4.10583 15.8942C3.35264 15.141 2.75778 14.2569 2.32125 13.2421C1.88486 12.2271 1.66667 11.1464 1.66667 10ZM5.69396 10C5.69396 10.2404 5.73132 10.4755 5.80604 10.7052C5.8809 10.9348 5.99153 11.1559 6.13792 11.3685L8.41354 14.5738L10.7052 11.3685C10.8515 11.1559 10.962 10.9348 11.0369 10.7052C11.1116 10.4755 11.149 10.2404 11.149 10C11.149 9.75639 11.1116 9.51785 11.0369 9.28438C10.962 9.05104 10.8515 8.8334 10.7052 8.63146L8.41354 5.42146L6.13792 8.63146C5.99153 8.8334 5.8809 9.05188 5.80604 9.28687C5.73132 9.52187 5.69396 9.75958 5.69396 10ZM2.5 10C2.5 12.0726 3.22917 13.8381 4.6875 15.2965C6.14583 16.7548 7.91667 17.484 10 17.484C12.0726 17.484 13.8381 16.7548 15.2965 15.2965C16.7548 13.8381 17.484 12.0726 17.484 10C17.484 9.23611 17.3756 8.5091 17.1587 7.81896C16.9418 7.12882 16.6357 6.48243 16.2404 5.87979C16.1293 6.19174 15.996 6.47382 15.8406 6.72604C15.6851 6.97812 15.5042 7.20729 15.2981 7.41354C15.0716 7.63993 14.8106 7.83944 14.5152 8.01208C14.2198 8.18458 13.8867 8.32639 13.516 8.4375C14.0149 8.69931 14.4137 9.07243 14.7123 9.55688C15.0109 10.0415 15.1602 10.5844 15.1602 11.1858C15.1602 12.0672 14.8525 12.8165 14.2371 13.4335C13.6218 14.0505 12.8735 14.359 11.9921 14.359C11.631 14.359 11.2872 14.3024 10.9608 14.1892C10.6344 14.0758 10.3376 13.9145 10.0704 13.7052L9.37812 14.665C9.25743 14.82 9.11646 14.9412 8.95521 15.0287C8.79382 15.1164 8.61861 15.1602 8.42958 15.1602C8.24042 15.1602 8.06333 15.1164 7.89833 15.0287C7.73319 14.9412 7.59562 14.82 7.48562 14.665L5.45667 11.8462C5.25264 11.5694 5.10306 11.2737 5.00792 10.9592C4.91292 10.6444 4.86542 10.3247 4.86542 10C4.86542 9.66458 4.91292 9.34139 5.00792 9.03042C5.10306 8.71958 5.25264 8.42576 5.45667 8.14896L7.48562 5.31417C7.59562 5.15917 7.73319 5.04139 7.89833 4.96083C8.06333 4.88014 8.24042 4.83979 8.42958 4.83979C8.61861 4.83979 8.79382 4.88014 8.95521 4.96083C9.11646 5.04139 9.25743 5.15917 9.37812 5.31417L10.5144 6.90229C10.6148 6.28576 10.7697 5.7409 10.9792 5.26771C11.1886 4.79437 11.4626 4.38354 11.8013 4.03521C11.9797 3.85035 12.1685 3.68583 12.3677 3.54167C12.567 3.3975 12.7927 3.26986 13.0448 3.15875C12.5876 2.95139 12.1012 2.78979 11.5858 2.67396C11.0703 2.55799 10.5417 2.5 10 2.5C7.91667 2.5 6.14583 3.22917 4.6875 4.6875C3.22917 6.14583 2.5 7.91667 2.5 10ZM11.391 11.8462L10.5481 13.04C10.7435 13.2057 10.9631 13.3307 11.2067 13.415C11.4503 13.4994 11.7104 13.5417 11.9871 13.5417C12.6346 13.5417 13.1865 13.3135 13.6427 12.8573C14.0988 12.4012 14.3269 11.844 14.3269 11.1858C14.3269 10.5512 14.106 10.0083 13.6642 9.55688C13.2225 9.10549 12.6876 8.87181 12.0594 8.85583H11.915C11.8724 8.85583 11.8243 8.86118 11.7708 8.87187C11.8414 9.0534 11.8943 9.23875 11.9296 9.42792C11.9647 9.61694 11.9823 9.80764 11.9823 10C11.9823 10.3247 11.9348 10.6444 11.8398 10.9592C11.7447 11.2737 11.5951 11.5694 11.391 11.8462ZM15.9023 3.32687C15.2709 3.38562 14.6453 3.49993 14.0256 3.66979C13.406 3.83965 12.8868 4.13403 12.4679 4.55292C12.1132 4.90764 11.8378 5.34938 11.6419 5.87813C11.4458 6.40701 11.3023 7.06674 11.2115 7.85729C11.2328 7.88938 11.2569 7.92146 11.2837 7.95354C11.3104 7.98563 11.3344 8.01764 11.3558 8.04958C12.1614 7.95889 12.8339 7.81708 13.3733 7.62417C13.9129 7.43139 14.3601 7.15764 14.7148 6.80292C15.1442 6.37347 15.4401 5.84542 15.6025 5.21875C15.765 4.59208 15.8649 3.96146 15.9023 3.32687ZM7.76771 11.7275C7.69604 11.656 7.66021 11.5708 7.66021 11.4719C7.66021 11.3731 7.69604 11.2879 7.76771 11.2162L8.47437 10.5096L7.585 9.78208C7.49625 9.71375 7.45187 9.62583 7.45187 9.51833C7.45187 9.41097 7.49305 9.32153 7.57542 9.25L8.55292 8.25646C8.63514 8.18479 8.72222 8.14896 8.81417 8.14896C8.90597 8.14896 8.99306 8.18479 9.07542 8.25646C9.14694 8.33868 9.18271 8.42576 9.18271 8.51771C9.18271 8.60951 9.14694 8.69125 9.07542 8.76292L8.3525 9.48563L9.24208 10.2179C9.33069 10.2863 9.37764 10.3715 9.38292 10.4735C9.38833 10.5756 9.34993 10.6624 9.26771 10.734L8.27396 11.7275C8.20243 11.7992 8.11806 11.835 8.02083 11.835C7.92361 11.835 7.83924 11.7992 7.76771 11.7275Z" fill="#595959"/>
</svg>
