<svg width="20" height="20" viewBox="0 0 20 20" fill="none" xmlns="http://www.w3.org/2000/svg">
<path d="M11.9856 11.9871C11.6159 11.2339 11.009 10.7358 10.1648 10.4927C9.32076 10.2497 8.44854 10.1281 7.54812 10.1281C6.65285 10.1281 5.77653 10.2497 4.91917 10.4927C4.06167 10.7358 3.45882 11.2339 3.11062 11.9871H11.9856ZM2.03521 12.8204C2.03521 11.6057 2.6084 10.7144 3.75479 10.1467C4.90118 9.57875 6.16562 9.29479 7.54812 9.29479C8.93062 9.29479 10.195 9.57875 11.3413 10.1467C12.4876 10.7144 13.0608 11.6057 13.0608 12.8204H2.03521ZM2.03521 15.5769V14.7435H13.0608V15.5769H2.03521ZM14.7275 18.3333V17.5H15.8942L17.0608 6.15375H9.55125L9.43917 5.32042H13.2852V1.98708H14.1185V5.32042H17.9648L16.7179 17.5737C16.6869 17.8035 16.5876 17.9875 16.4198 18.1258C16.2522 18.2642 16.0535 18.3333 15.8237 18.3333H14.7275ZM2.54812 18.3333C2.40285 18.3333 2.28104 18.2842 2.18271 18.1858C2.08437 18.0876 2.03521 17.9658 2.03521 17.8204V17.5H13.0608V17.8204C13.0608 17.9658 13.0117 18.0876 12.9135 18.1858C12.8152 18.2842 12.6934 18.3333 12.5481 18.3333H2.54812Z" fill="#595959"/>
</svg>
