<svg width="20" height="20" viewBox="0 0 20 20" fill="none" xmlns="http://www.w3.org/2000/svg">
<path d="M6.89896 16.6715C6.2559 16.6715 5.68993 16.4728 5.20104 16.0754C4.71229 15.6779 4.3675 15.1699 4.16667 14.5512L3.33333 11.9231H16.6667L15.8173 14.5512C15.6133 15.1699 15.265 15.6779 14.7725 16.0754C14.28 16.4728 13.7175 16.6715 13.085 16.6715H6.89896ZM6.89896 15.8173H13.085C13.524 15.8173 13.9187 15.6859 14.2692 15.4231C14.6196 15.1602 14.8664 14.8162 15.0096 14.391L15.5337 12.7565H4.46625L4.98562 14.391C5.11812 14.8162 5.35771 15.1602 5.70437 15.4231C6.05104 15.6859 6.44924 15.8173 6.89896 15.8173ZM10 8.04479L7.80125 8.75792C7.71153 8.78903 7.62097 8.81153 7.52958 8.82542C7.43833 8.83931 7.34778 8.84625 7.25792 8.84625C7.13944 8.84625 7.02701 8.8366 6.92062 8.81729C6.81437 8.79812 6.70889 8.76396 6.60417 8.71479C6.30389 9.05243 6.06562 9.42931 5.88937 9.84542C5.71312 10.2615 5.625 10.703 5.625 11.1698C5.625 11.3034 5.62847 11.4317 5.63542 11.5546C5.64236 11.6774 5.65812 11.8002 5.68271 11.9231H4.83333C4.80875 11.8002 4.79569 11.6774 4.79417 11.5546C4.7925 11.4317 4.79167 11.3034 4.79167 11.1698C4.79167 10.6185 4.89153 10.0908 5.09125 9.58646C5.29111 9.08229 5.57694 8.62396 5.94875 8.21146C5.83333 8.08007 5.74521 7.92681 5.68437 7.75167C5.6234 7.57639 5.59292 7.39153 5.59292 7.19708C5.59292 6.49194 5.8416 5.8934 6.33896 5.40146C6.83632 4.90951 7.44125 4.61333 8.15375 4.51292C8.35472 4.17417 8.61493 3.89292 8.93437 3.66917C9.25382 3.44528 9.60903 3.33333 10 3.33333C10.3803 3.33333 10.731 3.44528 11.0521 3.66917C11.3732 3.89292 11.6342 4.17417 11.835 4.51292C12.4225 4.59292 12.9415 4.81215 13.3919 5.17063C13.8422 5.5291 14.1373 5.97118 14.2773 6.49687L15.7788 4.16188L16.4744 4.60896L14.0898 8.3125C14.4348 8.71417 14.7075 9.15889 14.9079 9.64667C15.1082 10.1343 15.2083 10.642 15.2083 11.1698C15.2083 11.3034 15.2011 11.4317 15.1867 11.5546C15.1722 11.6774 15.1511 11.8002 15.1233 11.9231H14.3013C14.3183 11.8002 14.3349 11.6774 14.351 11.5546C14.367 11.4317 14.375 11.3034 14.375 11.1698C14.375 10.703 14.285 10.2615 14.105 9.84542C13.925 9.42931 13.6779 9.05243 13.3638 8.71479C13.259 8.76396 13.1535 8.79812 13.0473 8.81729C12.941 8.8366 12.834 8.84625 12.726 8.84625C12.6362 8.84625 12.5456 8.83931 12.4544 8.82542C12.363 8.81153 12.2778 8.78903 12.1987 8.75792L10 8.04479ZM10 7.16021L12.4471 7.97604C12.7281 8.07424 12.9861 8.04 13.2213 7.87333C13.4563 7.70667 13.5737 7.48125 13.5737 7.19708C13.5737 6.73028 13.4124 6.32431 13.0898 5.97917C12.7672 5.63403 12.3724 5.42833 11.9054 5.36208L11.3173 5.28521L11.0129 4.74833C10.9114 4.56681 10.7687 4.42181 10.585 4.31333C10.4012 4.20486 10.2063 4.15062 10 4.15062C9.78306 4.15062 9.58194 4.20486 9.39667 4.31333C9.21125 4.42181 9.06778 4.56681 8.96625 4.74833L8.66667 5.28521L8.07375 5.36208C7.59611 5.42833 7.19944 5.63403 6.88375 5.97917C6.56806 6.32431 6.41021 6.73028 6.41021 7.19708C6.41021 7.48125 6.52694 7.70667 6.76042 7.87333C6.99389 8.04 7.25111 8.07424 7.53208 7.97604L10 7.16021Z" fill="#595959"/>
</svg>
